<?xml version="1.0" standalone="no"?>
<!DOCTYPE svg PUBLIC "-//W3C//DTD SVG 20010904//EN"
 "http://www.w3.org/TR/2001/REC-SVG-20010904/DTD/svg10.dtd">
<svg version="1.0" xmlns="http://www.w3.org/2000/svg"
 width="1095.000000pt" height="1095.000000pt" viewBox="0 0 1095.000000 1095.000000"
 preserveAspectRatio="xMidYMid meet">
<metadata>
Created by potrace 1.16, written by Peter Selinger 2001-2019
</metadata>
<g transform="translate(0.000000,1095.000000) scale(0.100000,-0.100000)"
fill="#000000" stroke="none">
<path d="M5180 10911 l0 -39 -60 -4 c-33 -2 -66 -10 -72 -16 -6 -6 -14 -38
-16 -71 l-4 -59 -59 -4 c-33 -2 -65 -10 -71 -16 -6 -6 -14 -38 -16 -71 l-4
-59 -59 -4 c-33 -2 -65 -10 -71 -16 -6 -6 -14 -38 -16 -71 l-4 -59 -59 -4
c-33 -2 -65 -10 -71 -16 -6 -6 -14 -38 -16 -71 l-4 -59 -59 -4 c-33 -2 -65
-10 -71 -16 -6 -6 -14 -38 -16 -71 l-4 -59 -59 -4 c-33 -2 -65 -10 -71 -16 -6
-6 -14 -38 -16 -71 l-4 -59 -59 -4 c-33 -2 -65 -10 -71 -16 -6 -6 -14 -38 -16
-71 l-4 -59 -59 -4 c-33 -2 -65 -10 -71 -16 -6 -6 -14 -38 -16 -71 l-4 -59
-59 -4 c-33 -2 -65 -10 -71 -16 -6 -6 -14 -38 -16 -71 l-4 -59 -59 -4 c-33 -2
-65 -10 -71 -16 -6 -6 -14 -38 -16 -71 l-4 -59 -59 -4 c-33 -2 -65 -10 -72
-17 -16 -16 -23 -504 -8 -544 10 -26 14 -27 76 -27 l65 0 0 -49 c0 -27 4 -61
10 -75 9 -24 14 -26 75 -26 l65 0 0 -49 c0 -27 4 -61 10 -75 9 -24 14 -26 75
-26 l65 0 0 -49 c0 -27 4 -61 10 -75 9 -24 14 -26 75 -26 l65 0 0 -49 c0 -27
4 -61 10 -75 9 -24 14 -26 75 -26 l65 0 0 -49 c0 -27 4 -61 10 -75 9 -24 14
-26 75 -26 l65 0 0 -49 c0 -27 4 -61 10 -75 9 -24 14 -26 75 -26 l65 0 0 -49
c0 -27 4 -61 10 -75 9 -24 14 -26 75 -26 l65 0 0 -49 c0 -27 4 -61 10 -75 9
-24 14 -26 75 -26 l65 0 0 -49 c0 -27 4 -61 10 -75 9 -24 14 -26 75 -26 l65 0
0 -49 c0 -27 4 -61 10 -75 9 -24 14 -26 75 -26 l65 0 0 -49 c0 -27 4 -61 10
-75 9 -24 14 -26 75 -26 l65 0 0 -49 c0 -27 4 -61 10 -75 9 -24 14 -26 75 -26
l65 0 0 -49 c0 -27 4 -61 10 -75 9 -24 14 -26 75 -26 l65 0 0 -49 c0 -27 4
-61 10 -75 9 -24 14 -26 75 -26 l65 0 0 -49 c0 -27 4 -61 10 -75 9 -24 14 -26
75 -26 l65 0 0 -49 c0 -27 4 -61 10 -75 9 -24 14 -26 75 -26 l65 0 0 -49 c0
-27 4 -61 10 -75 9 -24 14 -26 75 -26 l65 0 0 -49 c0 -27 4 -61 10 -75 9 -24
14 -26 75 -26 l65 0 0 -49 c0 -27 4 -61 10 -75 9 -24 14 -26 75 -26 l65 0 0
-49 c0 -27 4 -61 10 -75 9 -24 14 -26 75 -26 l65 0 0 -49 c0 -27 4 -61 10 -75
9 -24 14 -26 75 -26 l66 0 -3 -82 -3 -83 -30 -3 c-72 -7 -105 -39 -105 -100 0
-35 -17 -52 -52 -52 -60 0 -98 -38 -98 -98 0 -35 -17 -52 -52 -52 -60 0 -98
-38 -98 -98 0 -35 -17 -52 -52 -52 -60 0 -98 -38 -98 -98 0 -35 -17 -52 -52
-52 -60 0 -98 -38 -98 -98 0 -35 -17 -52 -52 -52 -60 0 -98 -38 -98 -98 0 -35
-17 -52 -52 -52 -60 0 -98 -38 -98 -98 0 -35 -17 -52 -52 -52 -60 0 -98 -38
-98 -98 0 -35 -17 -52 -52 -52 -60 0 -98 -38 -98 -98 0 -35 -17 -52 -52 -52
-60 0 -98 -38 -98 -98 0 -35 -17 -52 -52 -52 -60 0 -98 -38 -98 -98 0 -35 -17
-52 -52 -52 -60 0 -98 -38 -98 -98 0 -35 -17 -52 -52 -52 -60 0 -98 -38 -98
-98 0 -35 -17 -52 -52 -52 -60 0 -98 -38 -98 -98 0 -35 -17 -52 -52 -52 -60 0
-98 -38 -98 -98 0 -35 -17 -52 -52 -52 -60 0 -98 -38 -98 -98 0 -35 -17 -52
-52 -52 -60 0 -98 -38 -98 -98 0 -35 -17 -52 -52 -52 -60 0 -98 -38 -98 -98 0
-35 -17 -52 -52 -52 -60 0 -98 -38 -98 -98 0 -35 -17 -52 -52 -52 -60 0 -98
-38 -98 -98 0 -35 -17 -52 -52 -52 -60 0 -98 -38 -98 -98 0 -35 -17 -52 -52
-52 -15 0 -38 -5 -52 -11 -46 -21 -51 -54 -51 -319 l0 -245 72 -3 72 -3 3 -72
3 -72 72 -3 72 -3 3 -72 3 -72 72 -3 72 -3 3 -72 3 -72 72 -3 72 -3 3 -72 3
-72 72 -3 72 -3 3 -72 3 -72 72 -3 72 -3 3 -72 3 -72 72 -3 72 -3 3 -72 3 -72
72 -3 72 -3 3 -72 3 -72 72 -3 72 -3 3 -72 3 -72 72 -3 72 -3 3 -72 3 -72 72
-3 72 -3 3 -72 3 -72 218 -3 217 -2 0 75 0 75 75 0 75 0 0 75 0 75 75 0 75 0
0 75 0 75 75 0 75 0 0 75 0 75 75 0 75 0 0 75 0 75 75 0 75 0 0 75 0 75 75 0
75 0 0 75 0 75 75 0 75 0 0 75 0 75 75 0 75 0 0 75 0 75 75 0 75 0 0 75 0 75
75 0 75 0 0 75 0 75 75 0 75 0 0 75 0 75 75 0 75 0 0 75 0 75 75 0 75 0 0 75
0 75 75 0 75 0 0 75 0 75 75 0 75 0 0 75 0 75 75 0 75 0 0 75 0 75 75 0 75 0
0 75 0 75 75 0 75 0 0 75 0 75 75 0 75 0 0 75 0 75 75 0 75 0 0 75 0 75 75 0
75 0 0 75 0 75 75 0 75 0 0 75 0 75 75 0 75 0 0 75 0 75 75 0 75 0 0 75 0 75
75 0 75 0 0 75 0 75 75 0 75 0 0 75 0 75 75 0 75 0 0 75 0 75 75 0 75 0 0 75
0 75 75 0 75 0 0 75 0 75 75 0 75 0 0 75 0 75 75 0 75 0 0 75 0 75 75 0 75 0
0 75 0 75 75 0 75 0 0 75 0 75 75 0 75 0 0 75 0 75 75 0 75 0 -2 218 -3 217
-72 3 -72 3 -3 72 -3 72 -72 3 -72 3 -3 72 -3 72 -72 3 -72 3 -3 72 -3 72 -72
3 -72 3 -3 72 -3 72 -72 3 -72 3 -3 72 -3 72 -72 3 -72 3 -3 72 -3 72 -72 3
-72 3 -3 72 -3 72 -72 3 -72 3 -3 72 -3 72 -72 3 -72 3 -3 72 -3 72 -72 3 -72
3 -3 72 -3 72 -72 3 -72 3 -3 72 -3 72 -72 3 -72 3 -3 72 -3 72 -72 3 -72 3
-3 72 -3 72 -72 3 -72 3 -3 72 -3 72 -72 3 -72 3 -3 72 -3 72 -72 3 -72 3 -3
72 -3 72 -72 3 -72 3 -3 72 -3 72 -72 3 -72 3 -3 72 -3 72 -72 3 -72 3 -3 72
-3 72 -72 3 -72 3 -3 72 -3 72 -72 3 -72 3 -3 72 -3 72 -72 3 -72 3 -3 72 -3
72 -72 3 -72 3 -3 72 -3 72 -72 3 -72 3 -3 72 -3 72 -72 3 -72 3 -3 72 -3 72
-72 3 -72 3 -3 72 -3 72 -72 3 -72 3 -3 72 -3 72 -72 3 -72 3 -3 72 -3 72 -72
3 -72 3 -3 72 -3 72 -72 3 -72 3 -3 72 -3 72 -72 3 -72 3 -3 72 -3 72 -72 3
-72 3 -3 72 -3 72 -72 3 -72 3 -3 72 -3 72 -72 3 -72 3 -3 72 -3 72 -72 3 -73
3 0 39 0 40 -220 0 -220 0 0 -39z"/>
<path d="M2642 8308 c-7 -7 -12 -39 -12 -75 l0 -63 -63 0 c-36 0 -68 -5 -75
-12 -7 -7 -12 -39 -12 -75 l0 -63 -63 0 c-36 0 -68 -5 -75 -12 -7 -7 -12 -39
-12 -75 l0 -63 -63 0 c-36 0 -68 -5 -75 -12 -7 -7 -12 -39 -12 -75 l0 -63 -63
0 c-36 0 -68 -5 -75 -12 -7 -7 -12 -39 -12 -75 l0 -63 -63 0 c-36 0 -68 -5
-75 -12 -7 -7 -12 -39 -12 -75 l0 -63 -63 0 c-36 0 -68 -5 -75 -12 -7 -7 -12
-39 -12 -75 l0 -63 -63 0 c-36 0 -68 -5 -75 -12 -7 -7 -12 -39 -12 -75 l0 -63
-63 0 c-36 0 -68 -5 -75 -12 -7 -7 -12 -39 -12 -75 l0 -63 -63 0 c-36 0 -68
-5 -75 -12 -7 -7 -12 -39 -12 -75 l0 -63 -63 0 c-36 0 -68 -5 -75 -12 -7 -7
-12 -39 -12 -75 l0 -63 -63 0 c-36 0 -68 -5 -75 -12 -7 -7 -12 -39 -12 -75 l0
-63 -63 0 c-36 0 -68 -5 -75 -12 -7 -7 -12 -39 -12 -75 l0 -63 -63 0 c-36 0
-68 -5 -75 -12 -7 -7 -12 -39 -12 -75 l0 -63 -63 0 c-36 0 -68 -5 -75 -12 -7
-7 -12 -39 -12 -75 l0 -63 -63 0 c-36 0 -68 -5 -75 -12 -7 -7 -12 -39 -12 -75
l0 -63 -63 0 c-36 0 -68 -5 -75 -12 -7 -7 -12 -39 -12 -75 l0 -63 -63 0 c-36
0 -68 -5 -75 -12 -9 -9 -12 -72 -12 -220 l0 -208 75 0 75 0 0 -75 0 -75 75 0
75 0 0 -75 0 -75 75 0 75 0 0 -75 0 -75 75 0 75 0 0 -75 0 -75 75 0 75 0 0
-75 0 -75 75 0 75 0 0 -75 0 -75 75 0 75 0 0 -75 0 -75 75 0 75 0 0 -75 0 -75
75 0 75 0 0 -75 0 -75 75 0 75 0 0 -75 0 -75 75 0 75 0 0 -75 0 -75 75 0 75 0
0 -75 0 -75 75 0 75 0 0 -75 0 -75 75 0 75 0 0 -75 0 -75 75 0 75 0 0 -75 0
-75 75 0 75 0 0 -75 0 -75 75 0 75 0 0 -75 0 -75 260 0 c168 0 268 4 283 11
31 14 47 48 47 99 0 40 0 40 40 40 77 0 110 33 110 110 0 40 0 40 40 40 77 0
110 33 110 110 0 40 0 40 40 40 77 0 110 33 110 110 0 40 0 40 40 40 77 0 110
33 110 110 0 40 0 40 40 40 77 0 110 33 110 110 0 40 0 40 40 40 77 0 110 33
110 110 0 40 0 40 40 40 77 0 110 33 110 110 0 40 0 40 40 40 77 0 110 33 110
110 0 40 0 40 40 40 77 0 110 33 110 110 0 40 0 40 40 40 77 0 110 33 110 110
0 40 0 40 40 40 77 0 110 33 110 110 0 40 0 40 40 40 77 0 110 33 110 110 0
40 0 40 40 40 77 0 110 33 110 110 0 40 0 40 40 40 77 0 110 33 110 110 0 40
0 40 40 40 77 0 110 33 110 110 0 40 0 40 40 40 77 0 110 33 110 110 0 40 0
40 40 40 85 0 110 32 110 140 0 107 -22 135 -110 142 l-35 3 -3 78 -3 77 -74
0 -75 0 0 75 0 75 -75 0 -75 0 0 75 0 75 -75 0 -75 0 0 75 0 75 -75 0 -75 0 0
75 0 75 -75 0 -75 0 0 75 0 75 -75 0 -75 0 0 75 0 75 -75 0 -75 0 0 75 0 75
-75 0 -75 0 0 75 0 75 -75 0 -75 0 0 75 0 75 -75 0 -75 0 0 75 0 75 -75 0 -75
0 0 75 0 75 -75 0 -75 0 0 75 0 75 -75 0 -75 0 0 75 0 75 -75 0 -75 0 0 75 0
75 -75 0 -75 0 0 75 0 75 -75 0 -75 0 0 75 0 75 -75 0 -75 0 0 75 0 75 -208 0
c-148 0 -211 -3 -220 -12z"/>
</g>
</svg>
