<svg xmlns="http://www.w3.org/2000/svg" viewBox="0 0 512 71.85"><defs><style>.cls-1{fill:#333;}.cls-2{fill:#4d4d4d;}.cls-3{fill:#999;}.cls-4{fill:gray;}.cls-5{fill:#666;}.cls-6{fill:#1a1a1a;}</style></defs><title>pattern</title><g id="Capa_1" data-name="Capa 1"><rect class="cls-1" x="18.74" y="7.57" width="45.98" height="45.98"/><rect class="cls-2" y="25.87" width="45.98" height="45.98"/><rect class="cls-3" x="7062.33" y="7409.52" width="45.98" height="45.98" transform="translate(7227.14 7481.37) rotate(-180)"/><rect class="cls-4" x="7100.83" y="7383.65" width="45.98" height="45.98" transform="translate(7304.13 7429.63) rotate(-180)"/><rect class="cls-5" x="7031.53" y="7391" width="45.98" height="45.98" transform="translate(7165.55 7444.33) rotate(-180)"/><rect class="cls-6" x="59.42" y="25.66" width="45.98" height="45.98"/><rect class="cls-1" x="215.91" y="16.2" width="45.98" height="45.98"/><rect class="cls-2" x="197.17" y="34.46" width="45.98" height="37.17"/><rect class="cls-3" x="7259.5" y="7418.11" width="45.98" height="37.17" transform="translate(7621.47 7489.75) rotate(-180)"/><rect class="cls-4" x="7297.99" y="7392.28" width="45.98" height="45.98" transform="translate(7698.47 7446.89) rotate(-180)"/><rect class="cls-5" x="7228.7" y="7399.63" width="45.98" height="45.98" transform="translate(7559.88 7461.6) rotate(-180)"/><rect class="cls-6" x="256.58" y="34.29" width="45.98" height="37.17"/><rect class="cls-1" x="409" y="15.29" width="45.98" height="45.98"/><rect class="cls-2" x="390.26" y="33.59" width="45.98" height="38.26"/><rect class="cls-5" x="7421.79" y="7403.72" width="33.71" height="45.98" transform="translate(7933.79 7469.77) rotate(-180)"/><rect class="cls-6" x="449.68" y="30.37" width="45.98" height="41.08"/></g></svg>